<svg width="25" height="25" viewBox="0 0 25 25" fill="none" xmlns="http://www.w3.org/2000/svg">
<circle cx="12.5" cy="12.5" r="12.5" fill="#AECAEE"/>
<path d="M13.5186 18.867C15.9091 18.4485 19 16.945 19 13.0577C19 9.52064 16.0383 7.16484 13.9086 6.08254C13.4352 5.84188 12.8824 6.15808 12.8824 6.63606V7.85808C12.8824 8.82206 12.4189 10.5816 11.1312 11.3136C10.4735 11.6873 9.76235 11.1277 9.68282 10.4458L9.61706 9.88564C9.54059 9.23452 8.782 8.83944 8.18706 9.23653C7.11724 9.94848 6 11.1986 6 13.057C6 17.8107 10.0445 19 12.0664 19C12.1847 19 12.3081 18.9967 12.4365 18.99C11.4378 18.9158 9.82353 18.3743 9.82353 16.6228C9.82353 15.2524 10.9668 14.3265 11.8355 13.8753C12.0695 13.7549 12.3425 13.912 12.3425 14.1493V14.5438C12.3425 14.8446 12.4763 15.3159 12.7936 15.6381C13.1531 16.0031 13.6799 15.6207 13.722 15.1407C13.7358 14.9897 13.9101 14.8934 14.06 14.9696C14.5502 15.2203 15.1765 15.7551 15.1765 16.6228C15.1765 17.9919 14.3131 18.6216 13.5186 18.867Z" fill="white"/>
</svg>
